<?xml version="1.0" encoding="UTF-8"?>
<!DOCTYPE svg PUBLIC "-//W3C//DTD SVG 1.1//EN" "http://www.w3.org/Graphics/SVG/1.1/DTD/svg11.dtd">
<svg xmlns="http://www.w3.org/2000/svg" version="1.1" width="540px" height="540px" style="shape-rendering:geometricPrecision; text-rendering:geometricPrecision; image-rendering:optimizeQuality; fill-rule:evenodd; clip-rule:evenodd" xmlns:xlink="http://www.w3.org/1999/xlink">
<g><path style="opacity:1" fill="#ddd8cd" d="M -0.5,-0.5 C 179.5,-0.5 359.5,-0.5 539.5,-0.5C 539.5,179.5 539.5,359.5 539.5,539.5C 359.5,539.5 179.5,539.5 -0.5,539.5C -0.5,359.5 -0.5,179.5 -0.5,-0.5 Z"/></g>
<g><path style="opacity:1" fill="#f7f4ed" d="M 107.5,70.5 C 104.518,70.9629 101.518,71.2962 98.5,71.5C 99.8905,70.0146 102.224,69.1813 105.5,69C 215.167,68.3333 324.833,68.3333 434.5,69C 325.333,69.1669 216.333,69.6669 107.5,70.5 Z"/></g>
<g><path style="opacity:1" fill="#050404" d="M 107.5,70.5 C 218.167,70.3333 328.834,70.5 439.5,71C 462.343,76.8421 475.843,91.3421 480,114.5C 480.667,224.167 480.667,333.833 480,443.5C 476.586,470.58 461.419,486.08 434.5,490C 324.167,490.667 213.833,490.667 103.5,490C 80.5577,484.724 66.7244,470.558 62,447.5C 61.3333,335.5 61.3333,223.5 62,111.5C 67.0971,91.5753 79.2638,78.242 98.5,71.5C 101.518,71.2962 104.518,70.9629 107.5,70.5 Z"/></g>
<g><path style="opacity:1" fill="#010101" d="M 159.5,143.5 C 237.501,143.333 315.501,143.5 393.5,144C 403.7,145.865 410.534,151.699 414,161.5C 414.5,240.166 414.667,318.833 414.5,397.5C 412.967,409.535 406.3,417.035 394.5,420C 311.5,420.667 228.5,420.667 145.5,420C 135.118,416.952 128.951,410.119 127,399.5C 126.333,320.167 126.333,240.833 127,161.5C 133.155,147.334 143.989,141.334 159.5,143.5 Z"/></g>
<g><path style="opacity:1" fill="#f9f6eb" d="M 338.5,384.5 C 338.667,340.165 338.5,295.832 338,251.5C 337.283,252.044 336.783,252.711 336.5,253.5C 315.283,297.268 293.449,340.935 271,384.5C 248.04,340.913 225.873,296.913 204.5,252.5C 204.44,251.957 204.107,251.624 203.5,251.5C 202.5,295.828 202.167,340.162 202.5,384.5C 191.5,384.5 180.5,384.5 169.5,384.5C 169.5,316.167 169.5,247.833 169.5,179.5C 181.186,179.168 192.852,179.501 204.5,180.5C 226.38,224.593 248.547,268.593 271,312.5C 293.101,268.131 315.267,223.965 337.5,180C 348.828,179.5 360.162,179.333 371.5,179.5C 371.5,247.833 371.5,316.167 371.5,384.5C 360.5,384.5 349.5,384.5 338.5,384.5 Z"/></g>
<g><path style="opacity:1" fill="#f1f0e9" d="M 409.5,101.5 C 411.265,102.461 413.265,102.795 415.5,102.5C 415.5,101.167 415.5,99.8333 415.5,98.5C 413.5,98.5 411.5,98.5 409.5,98.5C 411.607,97.5318 413.941,97.1984 416.5,97.5C 416.232,100.119 416.565,102.619 417.5,105C 421.826,105.254 425.826,104.754 429.5,103.5C 430.795,104.098 432.128,104.598 433.5,105C 432.833,105.333 432.167,105.667 431.5,106C 434.695,106.181 437.695,106.681 440.5,107.5C 434.824,107.334 429.157,107.501 423.5,108C 423,108.5 422.5,109 422,109.5C 421.193,115.416 421.359,121.25 422.5,127C 428.825,127.5 435.158,127.666 441.5,127.5C 436.684,128.326 431.684,128.826 426.5,129C 426.043,129.414 425.709,129.914 425.5,130.5C 421.634,131.002 417.967,132.002 414.5,133.5C 413.549,132.674 412.549,132.508 411.5,133C 413,133.833 414.167,135 415,136.5C 417.539,134.897 420.206,133.564 423,132.5C 425.155,134.167 427.655,135.167 430.5,135.5C 433.702,134.873 436.869,134.206 440,133.5C 440.626,135.991 441.459,135.991 442.5,133.5C 444.071,134.309 445.738,134.643 447.5,134.5C 447.338,132.473 447.505,130.473 448,128.5C 449.123,131.249 450.623,133.749 452.5,136C 452.167,136.333 451.833,136.667 451.5,137C 453.107,136.981 454.774,136.815 456.5,136.5C 456.762,137.978 456.429,139.311 455.5,140.5C 454.914,140.291 454.414,139.957 454,139.5C 453.79,141.058 453.29,142.391 452.5,143.5C 452.5,141.833 452.5,140.167 452.5,138.5C 436.497,138.333 420.497,138.5 404.5,139C 410.423,143.18 417.09,144.68 424.5,143.5C 426.741,144.729 428.741,146.395 430.5,148.5C 432.137,147.556 433.137,148.223 433.5,150.5C 428.156,150.334 422.823,150.501 417.5,151C 419.986,154.137 421.819,157.637 423,161.5C 423.217,166.305 424.051,170.972 425.5,175.5C 424.697,176.423 424.53,177.423 425,178.5C 426.87,180.219 429.037,181.219 431.5,181.5C 431.5,182.833 431.5,184.167 431.5,185.5C 428.102,185.18 424.768,185.513 421.5,186.5C 421.957,187.298 422.624,187.631 423.5,187.5C 423.5,188.833 423.5,190.167 423.5,191.5C 433.341,192.167 443.341,192.833 453.5,193.5C 453.167,194.167 452.833,194.833 452.5,195.5C 453.891,195.109 454.891,195.942 455.5,198C 454.281,199.795 453.281,199.628 452.5,197.5C 442.833,197.5 433.167,197.5 423.5,197.5C 423.5,199.167 423.5,200.833 423.5,202.5C 433.167,202.5 442.833,202.5 452.5,202.5C 453.222,202.082 453.722,201.416 454,200.5C 456.028,203.328 455.528,205.661 452.5,207.5C 442.833,207.5 433.167,207.5 423.5,207.5C 423.5,209.167 423.5,210.833 423.5,212.5C 432.833,212.5 442.167,212.5 451.5,212.5C 451.366,214.292 451.699,215.958 452.5,217.5C 442.833,217.5 433.167,217.5 423.5,217.5C 423.5,218.833 423.5,220.167 423.5,221.5C 433.919,221.948 443.919,222.948 453.5,224.5C 452.833,225.167 452.167,225.833 451.5,226.5C 442.009,227.167 432.675,227.833 423.5,228.5C 423.5,229.833 423.5,231.167 423.5,232.5C 433.167,232.5 442.833,232.5 452.5,232.5C 454.922,234.286 454.922,235.952 452.5,237.5C 442.833,237.5 433.167,237.5 423.5,237.5C 423.5,239.167 423.5,240.833 423.5,242.5C 433.167,242.5 442.833,242.5 452.5,242.5C 452.758,244.19 452.758,246.19 452.5,248.5C 442.652,248.173 432.986,248.506 423.5,249.5C 423.5,250.833 423.5,252.167 423.5,253.5C 433.167,253.5 442.833,253.5 452.5,253.5C 453.319,250.695 453.819,247.695 454,244.5C 454.333,244.167 454.667,243.833 455,243.5C 454.737,244.951 454.904,246.284 455.5,247.5C 459.33,228.894 459.497,210.228 456,191.5C 455.667,191.833 455.333,192.167 455,192.5C 453.418,190.376 453.251,188.21 454.5,186C 453.584,185.722 452.918,185.222 452.5,184.5C 454.113,184.056 455.28,183.056 456,181.5C 456.333,182.167 456.667,182.833 457,183.5C 457.829,178.198 458.329,172.864 458.5,167.5C 457.277,155.494 457.277,143.494 458.5,131.5C 456.396,124.732 456.063,117.899 457.5,111C 455.856,107.891 454.522,104.725 453.5,101.5C 457.306,106.118 459.806,111.451 461,117.5C 461.667,225.833 461.667,334.167 461,442.5C 458.392,457.776 449.558,467.276 434.5,471C 326.167,471.5 217.834,471.667 109.5,471.5C 108.737,470.732 107.737,470.232 106.5,470C 153.459,470.647 200.459,470.647 247.5,470C 249.891,469.309 249.891,468.309 247.5,467C 237.177,465.356 237.51,464.19 248.5,463.5C 250.415,463.784 252.081,463.451 253.5,462.5C 253.5,451.5 253.5,440.5 253.5,429.5C 255.167,428.167 256.833,428.167 258.5,429.5C 258.5,440.5 258.5,451.5 258.5,462.5C 259.568,463.434 260.901,463.768 262.5,463.5C 262.5,452.167 262.5,440.833 262.5,429.5C 264.186,430.765 265.853,430.765 267.5,429.5C 267.5,440.833 267.5,452.167 267.5,463.5C 268.833,463.5 270.167,463.5 271.5,463.5C 271.5,452.5 271.5,441.5 271.5,430.5C 272.151,429.909 272.818,429.243 273.5,428.5C 274.086,428.709 274.586,429.043 275,429.5C 275.419,428.328 276.085,427.328 277,426.5C 280.008,427.368 282.841,427.702 285.5,427.5C 282.358,428.167 279.358,428.834 276.5,429.5C 276.5,440.833 276.5,452.167 276.5,463.5C 279.833,463.5 283.167,463.5 286.5,463.5C 287.822,463.67 288.989,463.337 290,462.5C 290.333,459.833 290.667,457.167 291,454.5C 291.383,453.944 291.883,453.611 292.5,453.5C 306.5,453.5 320.5,453.5 334.5,453.5C 334.5,451.833 334.5,450.167 334.5,448.5C 320.833,448.5 307.167,448.5 293.5,448.5C 294.562,446.766 294.562,445.099 293.5,443.5C 307.167,443.5 320.833,443.5 334.5,443.5C 334.5,441.833 334.5,440.167 334.5,438.5C 320.323,438.171 306.323,438.504 292.5,439.5C 289.833,437.5 289.833,435.5 292.5,433.5C 306.5,433.5 320.5,433.5 334.5,433.5C 335.494,443.319 335.827,453.319 335.5,463.5C 321.829,463.333 308.163,463.5 294.5,464C 313.513,464.276 332.513,464.776 351.5,465.5C 351.5,466.5 351.5,467.5 351.5,468.5C 358.267,468.821 364.934,468.154 371.5,466.5C 374.625,466.828 377.459,467.828 380,469.5C 386.614,469.063 393.114,468.73 399.5,468.5C 399.5,467.5 399.5,466.5 399.5,465.5C 396.116,465.34 392.783,465.673 389.5,466.5C 388.263,466.444 387.263,465.944 386.5,465C 391.627,464.217 396.627,463.05 401.5,461.5C 402.213,463.435 403.213,463.768 404.5,462.5C 413.5,463.833 422.5,463.833 431.5,462.5C 440.673,461.485 447.173,456.818 451,448.5C 452.429,437.912 452.929,427.245 452.5,416.5C 440.5,416.5 428.5,416.5 416.5,416.5C 427.654,415.505 438.988,415.172 450.5,415.5C 450.604,413.297 451.27,411.297 452.5,409.5C 452.5,408.167 452.5,406.833 452.5,405.5C 442.5,405.5 432.5,405.5 422.5,405.5C 421.23,401.215 421.23,396.881 422.5,392.5C 424.589,393.803 426.256,393.303 427.5,391C 426.167,390.667 424.833,390.333 423.5,390C 433.342,389.83 443.009,389.33 452.5,388.5C 453.18,386.301 454.18,384.968 455.5,384.5C 455.182,383.353 454.516,382.519 453.5,382C 454.167,381.667 454.833,381.333 455.5,381C 454.167,380.333 454.167,379.667 455.5,379C 454.047,377.351 453.047,375.518 452.5,373.5C 452.167,373.5 451.833,373.5 451.5,373.5C 452.953,372.175 452.619,371.342 450.5,371C 451.167,370.333 451.833,369.667 452.5,369C 442.658,368.83 432.991,368.33 423.5,367.5C 433.167,367.5 442.833,367.5 452.5,367.5C 452.5,357.167 452.5,346.833 452.5,336.5C 442.833,336.5 433.167,336.5 423.5,336.5C 422.67,346.659 422.17,356.992 422,367.5C 421.832,356.818 421.332,346.151 420.5,335.5C 419.402,331.639 418.569,331.639 418,335.5C 417.843,333.005 417.676,330.672 417.5,328.5C 416.5,351.157 416.167,373.824 416.5,396.5C 417.5,396.5 418.5,396.5 419.5,396.5C 419.5,397.5 419.5,398.5 419.5,399.5C 417.446,399.635 415.779,398.968 414.5,397.5C 414.667,318.833 414.5,240.166 414,161.5C 410.534,151.699 403.7,145.865 393.5,144C 315.501,143.5 237.501,143.333 159.5,143.5C 159.773,141.549 159.107,140.049 157.5,139C 158.953,137.351 159.953,135.518 160.5,133.5C 160.62,134.586 161.287,135.253 162.5,135.5C 163.416,135.457 164.083,135.124 164.5,134.5C 164.5,122.5 164.5,110.5 164.5,98.5C 165.552,98.3505 166.552,98.5172 167.5,99C 166.549,99.7175 166.383,100.551 167,101.5C 167.708,100.619 168.542,99.9528 169.5,99.5C 169.5,111.5 169.5,123.5 169.5,135.5C 171.099,135.768 172.432,135.434 173.5,134.5C 173.5,122.833 173.5,111.167 173.5,99.5C 173.5,99.1667 173.5,98.8333 173.5,98.5C 175.094,109.843 176.261,121.51 177,133.5C 177.333,134.167 177.667,134.833 178,135.5C 178.684,134.216 178.517,133.049 177.5,132C 179.049,130.786 180.215,129.286 181,127.5C 181.464,128.094 181.631,128.761 181.5,129.5C 181.5,129.833 181.5,130.167 181.5,130.5C 180.549,131.919 180.216,133.585 180.5,135.5C 251.167,135.5 321.833,135.5 392.5,135.5C 394.167,135.5 395.833,135.5 397.5,135.5C 398.461,133.735 398.795,131.735 398.5,129.5C 326.5,129.5 254.5,129.5 182.5,129.5C 185.305,128.681 188.305,128.181 191.5,128C 260.833,127.5 330.166,127.333 399.5,127.5C 399.5,129.167 399.5,130.833 399.5,132.5C 402.162,131.361 404.829,131.194 407.5,132C 408.305,130.887 408.972,129.721 409.5,128.5C 411.167,128.5 412.833,128.5 414.5,128.5C 414.825,121.313 414.491,114.313 413.5,107.5C 412.127,107.343 410.793,107.51 409.5,108C 408.449,109.385 407.116,110.385 405.5,111C 406.191,112.067 406.691,113.234 407,114.5C 407.414,114.043 407.914,113.709 408.5,113.5C 409.466,115.396 409.799,117.396 409.5,119.5C 407.914,118.587 406.414,118.587 405,119.5C 403.414,118.624 401.914,117.624 400.5,116.5C 399.951,119.259 399.284,121.259 398.5,122.5C 398.5,121.167 398.5,119.833 398.5,118.5C 340.167,117.167 281.833,115.833 223.5,114.5C 229.271,115.113 234.604,114.446 239.5,112.5C 247.903,113.134 255.903,112.467 263.5,110.5C 263.5,109.5 263.5,108.5 263.5,107.5C 259.162,107.378 258.828,107.045 262.5,106.5C 263.268,105.737 263.768,104.737 264,103.5C 265.936,105.808 266.769,108.475 266.5,111.5C 268.833,111.5 271.167,111.5 273.5,111.5C 273.586,112.496 273.252,113.329 272.5,114C 274.833,114.667 277.167,114.667 279.5,114C 278.692,113.692 278.025,113.192 277.5,112.5C 282.243,112.123 286.576,111.123 290.5,109.5C 291.5,109.5 292.5,109.5 293.5,109.5C 296.738,111.227 300.405,112.227 304.5,112.5C 305.739,112.058 306.739,111.391 307.5,110.5C 308.728,105.34 309.395,105.34 309.5,110.5C 310.5,110.5 311.5,110.5 312.5,110.5C 312.5,106.833 312.5,103.167 312.5,99.5C 313.705,101.138 315.038,101.471 316.5,100.5C 316.5,103.833 316.5,107.167 316.5,110.5C 317.833,110.5 319.167,110.5 320.5,110.5C 320.351,109.448 320.517,108.448 321,107.5C 321.377,108.942 322.21,109.942 323.5,110.5C 324.335,111.943 325.668,112.943 327.5,113.5C 332,113.833 336.5,114.167 341,114.5C 352.469,113.902 363.969,113.735 375.5,114C 364.864,113.172 364.864,112.672 375.5,112.5C 380.844,113.003 386.177,113.17 391.5,113C 390.167,112.667 388.833,112.333 387.5,112C 388.737,111.768 389.737,111.268 390.5,110.5C 393.104,109.47 395.771,109.47 398.5,110.5C 397.787,107.406 396.787,104.406 395.5,101.5C 396.5,101.5 397.5,101.5 398.5,101.5C 399.08,105.142 399.58,108.809 400,112.5C 401.892,111.87 403.559,110.87 405,109.5C 405.499,104.845 405.666,100.179 405.5,95.5C 406.675,95.281 407.675,95.6143 408.5,96.5C 407.943,98.2352 407.61,99.9018 407.5,101.5C 407.97,102.463 408.637,102.463 409.5,101.5 Z"/></g>
<g><path style="opacity:1" fill="#010100" d="M 423.5,228.5 C 433.167,228.5 442.833,228.5 452.5,228.5C 452.5,229.833 452.5,231.167 452.5,232.5C 442.833,232.5 433.167,232.5 423.5,232.5C 423.5,231.167 423.5,229.833 423.5,228.5 Z"/></g>
<g><path style="opacity:1" fill="#010100" d="M 452.5,217.5 C 452.5,218.833 452.5,220.167 452.5,221.5C 442.833,221.5 433.167,221.5 423.5,221.5C 423.5,220.167 423.5,218.833 423.5,217.5C 433.167,217.5 442.833,217.5 452.5,217.5 Z"/></g>
<g><path style="opacity:1" fill="#212120" d="M 452.5,207.5 C 452.784,209.415 452.451,211.081 451.5,212.5C 442.167,212.5 432.833,212.5 423.5,212.5C 423.5,210.833 423.5,209.167 423.5,207.5C 433.167,207.5 442.833,207.5 452.5,207.5 Z"/></g>
<g><path style="opacity:1" fill="#edeae2" d="M 449.5,164.5 C 450.309,166.292 450.809,168.292 451,170.5C 451.333,169.5 451.667,168.5 452,167.5C 453.35,170.372 453.85,173.205 453.5,176C 451.593,178.472 449.927,181.138 448.5,184C 449.959,183.645 451.293,183.811 452.5,184.5C 452.918,185.222 453.584,185.722 454.5,186C 453.251,188.21 453.418,190.376 455,192.5C 455.333,192.167 455.667,191.833 456,191.5C 459.497,210.228 459.33,228.894 455.5,247.5C 454.904,246.284 454.737,244.951 455,243.5C 454.667,243.833 454.333,244.167 454,244.5C 453.819,247.695 453.319,250.695 452.5,253.5C 452.5,252.167 452.5,250.833 452.5,249.5C 442.833,249.5 433.167,249.5 423.5,249.5C 432.986,248.506 442.652,248.173 452.5,248.5C 452.758,246.19 452.758,244.19 452.5,242.5C 452.5,240.833 452.5,239.167 452.5,237.5C 454.922,235.952 454.922,234.286 452.5,232.5C 452.5,231.167 452.5,229.833 452.5,228.5C 442.833,228.5 433.167,228.5 423.5,228.5C 432.675,227.833 442.009,227.167 451.5,226.5C 452.167,225.833 452.833,225.167 453.5,224.5C 443.919,222.948 433.919,221.948 423.5,221.5C 433.167,221.5 442.833,221.5 452.5,221.5C 452.5,220.167 452.5,218.833 452.5,217.5C 451.699,215.958 451.366,214.292 451.5,212.5C 452.451,211.081 452.784,209.415 452.5,207.5C 455.528,205.661 456.028,203.328 454,200.5C 453.722,201.416 453.222,202.082 452.5,202.5C 452.5,200.833 452.5,199.167 452.5,197.5C 453.281,199.628 454.281,199.795 455.5,198C 454.891,195.942 453.891,195.109 452.5,195.5C 452.833,194.833 453.167,194.167 453.5,193.5C 443.341,192.833 433.341,192.167 423.5,191.5C 433.167,191.5 442.833,191.5 452.5,191.5C 452.5,190.167 452.5,188.833 452.5,187.5C 442.833,187.5 433.167,187.5 423.5,187.5C 422.624,187.631 421.957,187.298 421.5,186.5C 424.768,185.513 428.102,185.18 431.5,185.5C 431.5,184.167 431.5,182.833 431.5,181.5C 429.037,181.219 426.87,180.219 425,178.5C 424.53,177.423 424.697,176.423 425.5,175.5C 430.174,180.232 435.84,181.732 442.5,180C 448.74,176.681 451.074,171.515 449.5,164.5 Z"/></g>
<g><path style="opacity:1" fill="#1d1c1b" d="M 452.5,197.5 C 452.5,199.167 452.5,200.833 452.5,202.5C 442.833,202.5 433.167,202.5 423.5,202.5C 423.5,200.833 423.5,199.167 423.5,197.5C 433.167,197.5 442.833,197.5 452.5,197.5 Z"/></g>
<g><path style="opacity:1" fill="#030002" d="M 423.5,187.5 C 433.167,187.5 442.833,187.5 452.5,187.5C 452.5,188.833 452.5,190.167 452.5,191.5C 442.833,191.5 433.167,191.5 423.5,191.5C 423.5,190.167 423.5,188.833 423.5,187.5 Z"/></g>
<g><path style="opacity:1" fill="#1b1b1a" d="M 452.5,237.5 C 452.5,239.167 452.5,240.833 452.5,242.5C 442.833,242.5 433.167,242.5 423.5,242.5C 423.5,240.833 423.5,239.167 423.5,237.5C 433.167,237.5 442.833,237.5 452.5,237.5 Z"/></g>
<g><path style="opacity:1" fill="#020102" d="M 423.5,249.5 C 433.167,249.5 442.833,249.5 452.5,249.5C 452.5,250.833 452.5,252.167 452.5,253.5C 442.833,253.5 433.167,253.5 423.5,253.5C 423.5,252.167 423.5,250.833 423.5,249.5 Z"/></g>
<g><path style="opacity:1" fill="#010100" d="M 423.5,261.5 C 433.167,261.5 442.833,261.5 452.5,261.5C 452.5,262.833 452.5,264.167 452.5,265.5C 442.833,265.5 433.167,265.5 423.5,265.5C 423.5,264.167 423.5,262.833 423.5,261.5 Z"/></g>
<g><path style="opacity:1" fill="#070607" d="M 423.5,271.5 C 433.167,271.5 442.833,271.5 452.5,271.5C 452.5,280.5 452.5,289.5 452.5,298.5C 442.833,298.5 433.167,298.5 423.5,298.5C 423.5,289.5 423.5,280.5 423.5,271.5 Z"/></g>
<g><path style="opacity:1" fill="#090907" d="M 423.5,305.5 C 433.167,305.5 442.833,305.5 452.5,305.5C 452.5,306.833 452.5,308.167 452.5,309.5C 442.833,309.5 433.167,309.5 423.5,309.5C 423.5,308.167 423.5,306.833 423.5,305.5 Z"/></g>
<g><path style="opacity:1" fill="#010101" d="M 423.5,315.5 C 433.167,315.5 442.833,315.5 452.5,315.5C 452.5,316.833 452.5,318.167 452.5,319.5C 442.833,319.5 433.167,319.5 423.5,319.5C 423.5,318.167 423.5,316.833 423.5,315.5 Z"/></g>
<g><path style="opacity:1" fill="#1e1d1c" d="M 423.5,325.5 C 433.167,325.5 442.833,325.5 452.5,325.5C 452.5,327.167 452.5,328.833 452.5,330.5C 442.833,330.5 433.167,330.5 423.5,330.5C 423.5,328.833 423.5,327.167 423.5,325.5 Z"/></g>
<g><path style="opacity:1" fill="#000000" d="M 423.5,336.5 C 433.167,336.5 442.833,336.5 452.5,336.5C 452.5,346.833 452.5,357.167 452.5,367.5C 442.833,367.5 433.167,367.5 423.5,367.5C 423.5,357.167 423.5,346.833 423.5,336.5 Z"/></g>
<g><path style="opacity:1" fill="#91908c" d="M 338.5,384.5 C 337.833,340.833 337.167,297.167 336.5,253.5C 336.783,252.711 337.283,252.044 338,251.5C 338.5,295.832 338.667,340.165 338.5,384.5 Z"/></g>
<g><path style="opacity:1" fill="#cac8c5" d="M 204.5,252.5 C 203.833,296.5 203.167,340.5 202.5,384.5C 202.167,340.162 202.5,295.828 203.5,251.5C 204.107,251.624 204.44,251.957 204.5,252.5 Z"/></g>
<g><path style="opacity:1" fill="#010200" d="M 423.5,395.5 C 431.86,395.169 440.193,395.502 448.5,396.5C 448.291,397.086 447.957,397.586 447.5,398C 439.507,398.5 431.507,398.666 423.5,398.5C 423.5,397.5 423.5,396.5 423.5,395.5 Z"/></g>
<g><path style="opacity:1" fill="#20211e" d="M 423.5,395.5 C 432.986,394.506 442.652,394.173 452.5,394.5C 452.5,396.167 452.5,397.833 452.5,399.5C 442.652,399.827 432.986,399.494 423.5,398.5C 431.507,398.666 439.507,398.5 447.5,398C 447.957,397.586 448.291,397.086 448.5,396.5C 440.193,395.502 431.86,395.169 423.5,395.5 Z"/></g>
<g><path style="opacity:1" fill="#030201" d="M 422.5,405.5 C 432.5,405.5 442.5,405.5 452.5,405.5C 452.5,406.833 452.5,408.167 452.5,409.5C 441.828,409.667 431.161,409.5 420.5,409C 421.085,407.698 421.751,406.531 422.5,405.5 Z"/></g>
<g><path style="opacity:1" fill="#040304" d="M 416.5,416.5 C 428.5,416.5 440.5,416.5 452.5,416.5C 452.929,427.245 452.429,437.912 451,448.5C 447.173,456.818 440.673,461.485 431.5,462.5C 422.833,462.5 414.167,462.5 405.5,462.5C 405.5,450.167 405.5,437.833 405.5,425.5C 409.432,422.908 413.099,419.908 416.5,416.5 Z"/></g>
<g><path style="opacity:1" fill="#f8f5ed" d="M 430.5,418.5 C 442.734,419.735 449.734,426.402 451.5,438.5C 444.5,438.5 437.5,438.5 430.5,438.5C 430.5,431.833 430.5,425.167 430.5,418.5 Z"/></g>
<g><path style="opacity:1" fill="#a0968d" d="M 430.5,440.5 C 437.5,440.5 444.5,440.5 451.5,440.5C 449.688,452.646 442.688,459.313 430.5,460.5C 430.5,453.833 430.5,447.167 430.5,440.5 Z"/></g>
<g><path style="opacity:1" fill="#7d7a79" d="M 405.5,425.5 C 405.5,437.833 405.5,450.167 405.5,462.5C 414.167,462.5 422.833,462.5 431.5,462.5C 422.5,463.833 413.5,463.833 404.5,462.5C 404.171,449.989 404.505,437.655 405.5,425.5 Z"/></g>
<g><path style="opacity:1" fill="#f7f5ec" d="M 453.5,101.5 C 454.522,104.725 455.856,107.891 457.5,111C 456.063,117.899 456.396,124.732 458.5,131.5C 457.277,143.494 457.277,155.494 458.5,167.5C 458.329,172.864 457.829,178.198 457,183.5C 456.667,182.833 456.333,182.167 456,181.5C 455.28,183.056 454.113,184.056 452.5,184.5C 451.293,183.811 449.959,183.645 448.5,184C 449.927,181.138 451.593,178.472 453.5,176C 453.85,173.205 453.35,170.372 452,167.5C 451.667,168.5 451.333,169.5 451,170.5C 450.809,168.292 450.309,166.292 449.5,164.5C 446.244,157.527 440.911,152.86 433.5,150.5C 433.137,148.223 432.137,147.556 430.5,148.5C 428.741,146.395 426.741,144.729 424.5,143.5C 433.833,143.5 443.167,143.5 452.5,143.5C 453.29,142.391 453.79,141.058 454,139.5C 454.414,139.957 454.914,140.291 455.5,140.5C 456.429,139.311 456.762,137.978 456.5,136.5C 454.774,136.815 453.107,136.981 451.5,137C 451.833,136.667 452.167,136.333 452.5,136C 450.623,133.749 449.123,131.249 448,128.5C 447.505,130.473 447.338,132.473 447.5,134.5C 445.738,134.643 444.071,134.309 442.5,133.5C 441.459,135.991 440.626,135.991 440,133.5C 436.869,134.206 433.702,134.873 430.5,135.5C 427.655,135.167 425.155,134.167 423,132.5C 420.206,133.564 417.539,134.897 415,136.5C 414.167,135 413,133.833 411.5,133C 412.549,132.508 413.549,132.674 414.5,133.5C 417.967,132.002 421.634,131.002 425.5,130.5C 425.709,129.914 426.043,129.414 426.5,129C 431.684,128.826 436.684,128.326 441.5,127.5C 442.458,127.047 443.292,126.381 444,125.5C 444.667,120.5 444.667,115.5 444,110.5C 443.578,108.574 442.411,107.574 440.5,107.5C 437.695,106.681 434.695,106.181 431.5,106C 432.167,105.667 432.833,105.333 433.5,105C 432.128,104.598 430.795,104.098 429.5,103.5C 425.826,104.754 421.826,105.254 417.5,105C 416.565,102.619 416.232,100.119 416.5,97.5C 413.941,97.1984 411.607,97.5318 409.5,98.5C 409.5,99.5 409.5,100.5 409.5,101.5C 408.637,102.463 407.97,102.463 407.5,101.5C 407.61,99.9018 407.943,98.2352 408.5,96.5C 407.675,95.6143 406.675,95.281 405.5,95.5C 405.666,100.179 405.499,104.845 405,109.5C 403.559,110.87 401.892,111.87 400,112.5C 399.58,108.809 399.08,105.142 398.5,101.5C 397.5,101.5 396.5,101.5 395.5,101.5C 393.866,98.849 392.199,98.849 390.5,101.5C 390.38,100.414 389.713,99.7472 388.5,99.5C 387.151,99.8457 385.817,100.179 384.5,100.5C 385.914,98.8615 385.58,97.5282 383.5,96.5C 378.101,95.8222 372.768,95.4889 367.5,95.5C 367.5,96.5 367.5,97.5 367.5,98.5C 363.941,98.7155 360.441,98.3822 357,97.5C 354.331,98.0161 351.831,98.6827 349.5,99.5C 349.167,99.5 348.833,99.5 348.5,99.5C 345.873,98.8951 343.207,98.3951 340.5,98C 340.833,97.6667 341.167,97.3333 341.5,97C 339.231,96.2419 337.064,96.4086 335,97.5C 333.178,95.9546 331.011,95.288 328.5,95.5C 326.833,95.6667 325.167,95.8333 323.5,96C 324.622,97.6134 324.122,98.7801 322,99.5C 318.079,98.7731 314.412,97.4398 311,95.5C 307.613,95.9809 304.113,95.9809 300.5,95.5C 300.112,96.8154 298.778,97.8154 296.5,98.5C 294.893,98.363 293.559,97.6964 292.5,96.5C 289.167,96.1667 285.833,95.8333 282.5,95.5C 272.596,95.8643 262.763,95.8643 253,95.5C 252.667,96.1667 252.333,96.8333 252,97.5C 248.425,94.7227 245.092,95.0561 242,98.5C 242.996,102.554 242.662,106.554 241,110.5C 240.667,110.167 240.333,109.833 240,109.5C 239.517,110.448 239.351,111.448 239.5,112.5C 234.604,114.446 229.271,115.113 223.5,114.5C 223.5,109.5 223.5,104.5 223.5,99.5C 217.021,98.5093 210.354,98.176 203.5,98.5C 203.5,105.833 203.5,113.167 203.5,120.5C 203.5,120.833 203.5,121.167 203.5,121.5C 268.331,122.499 333.331,122.832 398.5,122.5C 399.284,121.259 399.951,119.259 400.5,116.5C 401.914,117.624 403.414,118.624 405,119.5C 406.414,118.587 407.914,118.587 409.5,119.5C 409.5,122.167 409.5,124.833 409.5,127.5C 409.5,127.833 409.5,128.167 409.5,128.5C 408.972,129.721 408.305,130.887 407.5,132C 404.829,131.194 402.162,131.361 399.5,132.5C 399.5,130.833 399.5,129.167 399.5,127.5C 330.166,127.333 260.833,127.5 191.5,128C 188.305,128.181 185.305,128.681 182.5,129.5C 182.167,129.5 181.833,129.5 181.5,129.5C 181.631,128.761 181.464,128.094 181,127.5C 180.215,129.286 179.049,130.786 177.5,132C 178.517,133.049 178.684,134.216 178,135.5C 177.667,134.833 177.333,134.167 177,133.5C 176.261,121.51 175.094,109.843 173.5,98.5C 171.901,98.2322 170.568,98.5655 169.5,99.5C 168.542,99.9528 167.708,100.619 167,101.5C 166.383,100.551 166.549,99.7175 167.5,99C 166.552,98.5172 165.552,98.3505 164.5,98.5C 163.5,98.5 162.5,98.5 161.5,98.5C 160.505,109.988 160.172,121.655 160.5,133.5C 159.953,135.518 158.953,137.351 157.5,139C 159.107,140.049 159.773,141.549 159.5,143.5C 143.989,141.334 133.155,147.334 127,161.5C 126.333,240.833 126.333,320.167 127,399.5C 128.951,410.119 135.118,416.952 145.5,420C 228.5,420.667 311.5,420.667 394.5,420C 406.3,417.035 412.967,409.535 414.5,397.5C 415.779,398.968 417.446,399.635 419.5,399.5C 419.5,398.5 419.5,397.5 419.5,396.5C 418.5,396.5 417.5,396.5 416.5,396.5C 416.167,373.824 416.5,351.157 417.5,328.5C 417.676,330.672 417.843,333.005 418,335.5C 418.569,331.639 419.402,331.639 420.5,335.5C 421.332,346.151 421.832,356.818 422,367.5C 422.17,356.992 422.67,346.659 423.5,336.5C 423.5,346.833 423.5,357.167 423.5,367.5C 432.991,368.33 442.658,368.83 452.5,369C 451.833,369.667 451.167,370.333 450.5,371C 452.619,371.342 452.953,372.175 451.5,373.5C 442.167,373.5 432.833,373.5 423.5,373.5C 423.5,375.167 423.5,376.833 423.5,378.5C 433.167,378.5 442.833,378.5 452.5,378.5C 452.5,376.833 452.5,375.167 452.5,373.5C 453.047,375.518 454.047,377.351 455.5,379C 454.167,379.667 454.167,380.333 455.5,381C 454.833,381.333 454.167,381.667 453.5,382C 454.516,382.519 455.182,383.353 455.5,384.5C 454.18,384.968 453.18,386.301 452.5,388.5C 443.009,389.33 433.342,389.83 423.5,390C 424.833,390.333 426.167,390.667 427.5,391C 426.256,393.303 424.589,393.803 422.5,392.5C 421.23,396.881 421.23,401.215 422.5,405.5C 421.751,406.531 421.085,407.698 420.5,409C 431.161,409.5 441.828,409.667 452.5,409.5C 451.27,411.297 450.604,413.297 450.5,415.5C 438.988,415.172 427.654,415.505 416.5,416.5C 413.099,419.908 409.432,422.908 405.5,425.5C 404.505,437.655 404.171,449.989 404.5,462.5C 403.213,463.768 402.213,463.435 401.5,461.5C 396.627,463.05 391.627,464.217 386.5,465C 387.263,465.944 388.263,466.444 389.5,466.5C 392.783,465.673 396.116,465.34 399.5,465.5C 399.5,466.5 399.5,467.5 399.5,468.5C 393.114,468.73 386.614,469.063 380,469.5C 377.459,467.828 374.625,466.828 371.5,466.5C 364.934,468.154 358.267,468.821 351.5,468.5C 351.5,467.5 351.5,466.5 351.5,465.5C 332.513,464.776 313.513,464.276 294.5,464C 308.163,463.5 321.829,463.333 335.5,463.5C 335.827,453.319 335.494,443.319 334.5,433.5C 334.5,431.833 334.5,430.167 334.5,428.5C 320.323,428.171 306.323,428.504 292.5,429.5C 292.5,430.5 292.5,431.5 292.5,432.5C 292.5,432.833 292.5,433.167 292.5,433.5C 289.833,435.5 289.833,437.5 292.5,439.5C 292.5,440.5 292.5,441.5 292.5,442.5C 292.5,443.167 292.833,443.5 293.5,443.5C 294.562,445.099 294.562,446.766 293.5,448.5C 292.833,448.5 292.5,448.833 292.5,449.5C 292.5,450.5 292.5,451.5 292.5,452.5C 292.5,452.833 292.5,453.167 292.5,453.5C 291.883,453.611 291.383,453.944 291,454.5C 290.667,457.167 290.333,459.833 290,462.5C 288.989,463.337 287.822,463.67 286.5,463.5C 286.5,463.167 286.5,462.833 286.5,462.5C 286.5,451.5 286.5,440.5 286.5,429.5C 283.5,429.5 280.5,429.5 277.5,429.5C 277.167,429.5 276.833,429.5 276.5,429.5C 279.358,428.834 282.358,428.167 285.5,427.5C 282.841,427.702 280.008,427.368 277,426.5C 276.085,427.328 275.419,428.328 275,429.5C 274.586,429.043 274.086,428.709 273.5,428.5C 272.818,429.243 272.151,429.909 271.5,430.5C 270.432,429.566 269.099,429.232 267.5,429.5C 265.853,430.765 264.186,430.765 262.5,429.5C 262.167,429.5 261.833,429.5 261.5,429.5C 260.5,429.5 259.5,429.5 258.5,429.5C 256.833,428.167 255.167,428.167 253.5,429.5C 252.167,428.167 250.833,428.167 249.5,429.5C 248.505,440.654 248.172,451.988 248.5,463.5C 237.51,464.19 237.177,465.356 247.5,467C 249.891,468.309 249.891,469.309 247.5,470C 200.459,470.647 153.459,470.647 106.5,470C 107.737,470.232 108.737,470.732 109.5,471.5C 94.3425,468.51 84.8425,459.51 81,444.5C 80.3333,335.167 80.3333,225.833 81,116.5C 84.4269,102.741 92.9269,93.9072 106.5,90C 215.833,89.3333 325.167,89.3333 434.5,90C 442.131,91.8099 448.464,95.6433 453.5,101.5 Z"/></g>
<g><path style="opacity:1" fill="#070302" d="M 367.5,456.5 C 369.167,456.5 370.833,456.5 372.5,456.5C 372.5,458.5 372.5,460.5 372.5,462.5C 370.833,462.5 369.167,462.5 367.5,462.5C 367.5,460.5 367.5,458.5 367.5,456.5 Z"/></g>
<g><path style="opacity:1" fill="#141110" d="M 355.5,456.5 C 357.167,456.5 358.833,456.5 360.5,456.5C 360.5,458.5 360.5,460.5 360.5,462.5C 358.833,462.5 357.167,462.5 355.5,462.5C 355.5,460.5 355.5,458.5 355.5,456.5 Z"/></g>
<g><path style="opacity:1" fill="#050504" d="M 292.5,458.5 C 306.5,458.5 320.5,458.5 334.5,458.5C 334.5,459.833 334.5,461.167 334.5,462.5C 320.5,462.5 306.5,462.5 292.5,462.5C 292.5,461.167 292.5,459.833 292.5,458.5 Z"/></g>
<g><path style="opacity:1" fill="#0c0807" d="M 379.5,456.5 C 381.167,456.5 382.833,456.5 384.5,456.5C 384.5,458.5 384.5,460.5 384.5,462.5C 382.833,462.5 381.167,462.5 379.5,462.5C 379.5,460.5 379.5,458.5 379.5,456.5 Z"/></g>
<g><path style="opacity:1" fill="#010101" d="M 139.5,457.5 C 157.167,457.5 174.833,457.5 192.5,457.5C 192.5,459.167 192.5,460.833 192.5,462.5C 174.833,462.5 157.167,462.5 139.5,462.5C 139.5,460.833 139.5,459.167 139.5,457.5 Z"/></g>
<g><path style="opacity:1" fill="#050301" d="M 342.5,456.5 C 344.167,456.5 345.833,456.5 347.5,456.5C 347.5,458.5 347.5,460.5 347.5,462.5C 345.833,462.5 344.167,462.5 342.5,462.5C 342.5,460.5 342.5,458.5 342.5,456.5 Z"/></g>
<g><path style="opacity:1" fill="#b2b0b0" d="M 139.5,457.5 C 157.326,456.503 175.326,456.17 193.5,456.5C 193.5,458.833 193.5,461.167 193.5,463.5C 175.326,463.83 157.326,463.497 139.5,462.5C 157.167,462.5 174.833,462.5 192.5,462.5C 192.5,460.833 192.5,459.167 192.5,457.5C 174.833,457.5 157.167,457.5 139.5,457.5 Z"/></g>
<g><path style="opacity:1" fill="#696866" d="M 249.5,429.5 C 250.833,428.167 252.167,428.167 253.5,429.5C 253.5,440.5 253.5,451.5 253.5,462.5C 253.167,462.5 252.833,462.5 252.5,462.5C 252.5,451.5 252.5,440.5 252.5,429.5C 251.5,429.5 250.5,429.5 249.5,429.5 Z"/></g>
<g><path style="opacity:1" fill="#474745" d="M 292.5,449.5 C 292.5,448.833 292.833,448.5 293.5,448.5C 307.167,448.5 320.833,448.5 334.5,448.5C 334.5,450.167 334.5,451.833 334.5,453.5C 320.5,453.5 306.5,453.5 292.5,453.5C 292.5,453.167 292.5,452.833 292.5,452.5C 306.167,452.5 319.833,452.5 333.5,452.5C 333.5,451.5 333.5,450.5 333.5,449.5C 319.833,449.5 306.167,449.5 292.5,449.5 Z"/></g>
<g><path style="opacity:1" fill="#979792" d="M 249.5,429.5 C 249.5,440.5 249.5,451.5 249.5,462.5C 250.5,462.5 251.5,462.5 252.5,462.5C 252.833,462.5 253.167,462.5 253.5,462.5C 252.081,463.451 250.415,463.784 248.5,463.5C 248.172,451.988 248.505,440.654 249.5,429.5 Z"/></g>
<g><path style="opacity:1" fill="#020201" d="M 292.5,449.5 C 306.167,449.5 319.833,449.5 333.5,449.5C 333.5,450.5 333.5,451.5 333.5,452.5C 319.833,452.5 306.167,452.5 292.5,452.5C 292.5,451.5 292.5,450.5 292.5,449.5 Z"/></g>
<g><path style="opacity:1" fill="#0e0c09" d="M 392.5,444.5 C 394.167,444.5 395.833,444.5 397.5,444.5C 397.5,446.5 397.5,448.5 397.5,450.5C 395.833,450.5 394.167,450.5 392.5,450.5C 392.5,448.5 392.5,446.5 392.5,444.5 Z"/></g>
<g><path style="opacity:1" fill="#3c3938" d="M 276.5,429.5 C 276.833,429.5 277.167,429.5 277.5,429.5C 277.5,440.5 277.5,451.5 277.5,462.5C 280.5,462.5 283.5,462.5 286.5,462.5C 286.5,462.833 286.5,463.167 286.5,463.5C 283.167,463.5 279.833,463.5 276.5,463.5C 276.5,452.167 276.5,440.833 276.5,429.5 Z"/></g>
<g><path style="opacity:1" fill="#4a4945" d="M 261.5,429.5 C 261.833,429.5 262.167,429.5 262.5,429.5C 262.5,440.833 262.5,452.167 262.5,463.5C 260.901,463.768 259.568,463.434 258.5,462.5C 259.5,462.5 260.5,462.5 261.5,462.5C 261.5,451.5 261.5,440.5 261.5,429.5 Z"/></g>
<g><path style="opacity:1" fill="#121111" d="M 139.5,445.5 C 157.167,445.5 174.833,445.5 192.5,445.5C 192.5,447.167 192.5,448.833 192.5,450.5C 174.833,450.5 157.167,450.5 139.5,450.5C 139.5,448.833 139.5,447.167 139.5,445.5 Z"/></g>
<g><path style="opacity:1" fill="#1c1a19" d="M 379.5,443.5 C 381.167,443.5 382.833,443.5 384.5,443.5C 384.5,445.833 384.5,448.167 384.5,450.5C 382.833,450.5 381.167,450.5 379.5,450.5C 379.5,448.167 379.5,445.833 379.5,443.5 Z"/></g>
<g><path style="opacity:1" fill="#0d0b08" d="M 367.5,444.5 C 369.167,444.5 370.833,444.5 372.5,444.5C 372.5,446.5 372.5,448.5 372.5,450.5C 370.833,450.5 369.167,450.5 367.5,450.5C 367.5,448.5 367.5,446.5 367.5,444.5 Z"/></g>
<g><path style="opacity:1" fill="#0c0b08" d="M 342.5,444.5 C 344.167,444.5 345.833,444.5 347.5,444.5C 347.5,446.5 347.5,448.5 347.5,450.5C 345.833,450.5 344.167,450.5 342.5,450.5C 342.5,448.5 342.5,446.5 342.5,444.5 Z"/></g>
<g><path style="opacity:1" fill="#4b4b49" d="M 292.5,439.5 C 306.323,438.504 320.323,438.171 334.5,438.5C 334.5,440.167 334.5,441.833 334.5,443.5C 320.833,443.5 307.167,443.5 293.5,443.5C 292.833,443.5 292.5,443.167 292.5,442.5C 306.167,442.5 319.833,442.5 333.5,442.5C 333.5,441.5 333.5,440.5 333.5,439.5C 319.833,439.5 306.167,439.5 292.5,439.5 Z"/></g>
<g><path style="opacity:1" fill="#979391" d="M 355.5,431.5 C 355.5,433.5 355.5,435.5 355.5,437.5C 356.833,437.5 358.167,437.5 359.5,437.5C 359.5,435.5 359.5,433.5 359.5,431.5C 360.468,433.607 360.802,435.941 360.5,438.5C 358.833,438.5 357.167,438.5 355.5,438.5C 355.5,440.167 355.5,441.833 355.5,443.5C 357.167,443.5 358.833,443.5 360.5,443.5C 360.802,446.059 360.468,448.393 359.5,450.5C 359.5,448.5 359.5,446.5 359.5,444.5C 358.167,444.5 356.833,444.5 355.5,444.5C 355.5,446.5 355.5,448.5 355.5,450.5C 354.167,444.167 354.167,437.833 355.5,431.5 Z"/></g>
<g><path style="opacity:1" fill="#0c0809" d="M 359.5,450.5 C 358.167,450.5 356.833,450.5 355.5,450.5C 355.5,448.5 355.5,446.5 355.5,444.5C 356.833,444.5 358.167,444.5 359.5,444.5C 359.5,446.5 359.5,448.5 359.5,450.5 Z"/></g>
<g><path style="opacity:1" fill="#030201" d="M 292.5,439.5 C 306.167,439.5 319.833,439.5 333.5,439.5C 333.5,440.5 333.5,441.5 333.5,442.5C 319.833,442.5 306.167,442.5 292.5,442.5C 292.5,441.5 292.5,440.5 292.5,439.5 Z"/></g>
<g><path style="opacity:1" fill="#94938c" d="M 384.5,431.5 C 385.468,433.607 385.802,435.941 385.5,438.5C 383.265,438.795 381.265,438.461 379.5,437.5C 381.167,437.5 382.833,437.5 384.5,437.5C 384.5,435.5 384.5,433.5 384.5,431.5 Z"/></g>
<g><path style="opacity:1" fill="#060606" d="M 139.5,433.5 C 157.167,433.5 174.833,433.5 192.5,433.5C 192.5,435.167 192.5,436.833 192.5,438.5C 174.833,438.5 157.167,438.5 139.5,438.5C 139.5,436.833 139.5,435.167 139.5,433.5 Z"/></g>
<g><path style="opacity:1" fill="#0a0906" d="M 392.5,431.5 C 394.167,431.5 395.833,431.5 397.5,431.5C 397.5,433.5 397.5,435.5 397.5,437.5C 395.833,437.5 394.167,437.5 392.5,437.5C 392.5,435.5 392.5,433.5 392.5,431.5 Z"/></g>
<g><path style="opacity:1" fill="#0a0905" d="M 367.5,431.5 C 369.167,431.5 370.833,431.5 372.5,431.5C 372.5,433.5 372.5,435.5 372.5,437.5C 370.833,437.5 369.167,437.5 367.5,437.5C 367.5,435.5 367.5,433.5 367.5,431.5 Z"/></g>
<g><path style="opacity:1" fill="#13120f" d="M 384.5,431.5 C 384.5,433.5 384.5,435.5 384.5,437.5C 382.833,437.5 381.167,437.5 379.5,437.5C 379.5,435.5 379.5,433.5 379.5,431.5C 381.167,431.5 382.833,431.5 384.5,431.5 Z"/></g>
<g><path style="opacity:1" fill="#0c080b" d="M 355.5,431.5 C 356.833,431.5 358.167,431.5 359.5,431.5C 359.5,433.5 359.5,435.5 359.5,437.5C 358.167,437.5 356.833,437.5 355.5,437.5C 355.5,435.5 355.5,433.5 355.5,431.5 Z"/></g>
<g><path style="opacity:1" fill="#080905" d="M 342.5,431.5 C 344.167,431.5 345.833,431.5 347.5,431.5C 347.5,433.5 347.5,435.5 347.5,437.5C 345.833,437.5 344.167,437.5 342.5,437.5C 342.5,435.5 342.5,433.5 342.5,431.5 Z"/></g>
<g><path style="opacity:1" fill="#020200" d="M 249.5,429.5 C 250.5,429.5 251.5,429.5 252.5,429.5C 252.5,440.5 252.5,451.5 252.5,462.5C 251.5,462.5 250.5,462.5 249.5,462.5C 249.5,451.5 249.5,440.5 249.5,429.5 Z"/></g>
<g><path style="opacity:1" fill="#020201" d="M 292.5,429.5 C 306.167,429.5 319.833,429.5 333.5,429.5C 333.5,430.5 333.5,431.5 333.5,432.5C 319.833,432.5 306.167,432.5 292.5,432.5C 292.5,431.5 292.5,430.5 292.5,429.5 Z"/></g>
<g><path style="opacity:1" fill="#010100" d="M 277.5,429.5 C 280.5,429.5 283.5,429.5 286.5,429.5C 286.5,440.5 286.5,451.5 286.5,462.5C 283.5,462.5 280.5,462.5 277.5,462.5C 277.5,451.5 277.5,440.5 277.5,429.5 Z"/></g>
<g><path style="opacity:1" fill="#0d0c0b" d="M 267.5,429.5 C 269.099,429.232 270.432,429.566 271.5,430.5C 271.5,441.5 271.5,452.5 271.5,463.5C 270.167,463.5 268.833,463.5 267.5,463.5C 267.5,452.167 267.5,440.833 267.5,429.5 Z"/></g>
<g><path style="opacity:1" fill="#020100" d="M 258.5,429.5 C 259.5,429.5 260.5,429.5 261.5,429.5C 261.5,440.5 261.5,451.5 261.5,462.5C 260.5,462.5 259.5,462.5 258.5,462.5C 258.5,451.5 258.5,440.5 258.5,429.5 Z"/></g>
<g><path style="opacity:1" fill="#030303" d="M 243.5,462.5 C 238.637,462.819 233.97,462.486 229.5,461.5C 235.212,454.833 234.545,448.666 227.5,443C 215.142,440.024 209.642,444.858 211,457.5C 211.662,458.984 212.496,460.317 213.5,461.5C 209.366,462.485 205.032,462.818 200.5,462.5C 200.5,451.5 200.5,440.5 200.5,429.5C 214.833,429.5 229.167,429.5 243.5,429.5C 243.5,440.5 243.5,451.5 243.5,462.5 Z"/></g>
<g><path style="opacity:1" fill="#64645f" d="M 292.5,429.5 C 306.323,428.504 320.323,428.171 334.5,428.5C 334.5,430.167 334.5,431.833 334.5,433.5C 320.5,433.5 306.5,433.5 292.5,433.5C 292.5,433.167 292.5,432.833 292.5,432.5C 306.167,432.5 319.833,432.5 333.5,432.5C 333.5,431.5 333.5,430.5 333.5,429.5C 319.833,429.5 306.167,429.5 292.5,429.5 Z"/></g>
<g><path style="opacity:1" fill="#040404" d="M 88.5,416.5 C 100.851,416.168 113.185,416.501 125.5,417.5C 127.149,419.65 128.982,421.65 131,423.5C 131.5,436.829 131.667,450.163 131.5,463.5C 123.493,463.666 115.493,463.5 107.5,463C 97.1048,459.94 90.9381,453.107 89,442.5C 88.5002,433.84 88.3336,425.173 88.5,416.5 Z"/></g>
<g><path style="opacity:1" fill="#060504" d="M 88.5,405.5 C 98.5,405.5 108.5,405.5 118.5,405.5C 118.33,406.822 118.663,407.989 119.5,409C 109.172,409.5 98.8387,409.666 88.5,409.5C 88.5,408.167 88.5,406.833 88.5,405.5 Z"/></g>
<g><path style="opacity:1" fill="#444441" d="M 89.5,394.5 C 89.5,395.833 89.5,397.167 89.5,398.5C 98.8333,398.5 108.167,398.5 117.5,398.5C 108.014,399.494 98.3478,399.827 88.5,399.5C 88.2155,397.585 88.5489,395.919 89.5,394.5 Z"/></g>
<g><path style="opacity:1" fill="#090907" d="M 89.5,394.5 C 98.8333,394.5 108.167,394.5 117.5,394.5C 117.5,395.833 117.5,397.167 117.5,398.5C 108.167,398.5 98.8333,398.5 89.5,398.5C 89.5,397.167 89.5,395.833 89.5,394.5 Z"/></g>
<g><path style="opacity:1" fill="#000100" d="M 452.5,388.5 C 442.833,388.5 433.167,388.5 423.5,388.5C 423.5,387.167 423.5,385.833 423.5,384.5C 433.167,384.5 442.833,384.5 452.5,384.5C 452.5,385.833 452.5,387.167 452.5,388.5 Z"/></g>
<g><path style="opacity:1" fill="#060705" d="M 88.5,384.5 C 98.1667,384.5 107.833,384.5 117.5,384.5C 117.5,385.833 117.5,387.167 117.5,388.5C 107.833,388.5 98.1667,388.5 88.5,388.5C 88.5,387.167 88.5,385.833 88.5,384.5 Z"/></g>
<g><path style="opacity:1" fill="#1e1e1c" d="M 451.5,373.5 C 451.833,373.5 452.167,373.5 452.5,373.5C 452.5,375.167 452.5,376.833 452.5,378.5C 442.833,378.5 433.167,378.5 423.5,378.5C 423.5,376.833 423.5,375.167 423.5,373.5C 432.833,373.5 442.167,373.5 451.5,373.5 Z"/></g>
<g><path style="opacity:1" fill="#72716f" d="M 117.5,378.5 C 117.5,377.167 117.5,375.833 117.5,374.5C 108.167,374.5 98.8333,374.5 89.5,374.5C 89.5,375.833 89.5,377.167 89.5,378.5C 88.5489,377.081 88.2155,375.415 88.5,373.5C 98.5,373.5 108.5,373.5 118.5,373.5C 118.784,375.415 118.451,377.081 117.5,378.5 Z"/></g>
<g><path style="opacity:1" fill="#0f0e0d" d="M 117.5,378.5 C 108.167,378.5 98.8333,378.5 89.5,378.5C 89.5,377.167 89.5,375.833 89.5,374.5C 98.8333,374.5 108.167,374.5 117.5,374.5C 117.5,375.833 117.5,377.167 117.5,378.5 Z"/></g>
<g><path style="opacity:1" fill="#5b5b58" d="M 89.5,362.5 C 89.5,363.833 89.5,365.167 89.5,366.5C 98.8333,366.5 108.167,366.5 117.5,366.5C 117.5,365.167 117.5,363.833 117.5,362.5C 118.451,363.919 118.784,365.585 118.5,367.5C 108.5,367.5 98.5,367.5 88.5,367.5C 88.2155,365.585 88.5489,363.919 89.5,362.5 Z"/></g>
<g><path style="opacity:1" fill="#070706" d="M 89.5,362.5 C 98.8333,362.5 108.167,362.5 117.5,362.5C 117.5,363.833 117.5,365.167 117.5,366.5C 108.167,366.5 98.8333,366.5 89.5,366.5C 89.5,365.167 89.5,363.833 89.5,362.5 Z"/></g>
<g><path style="opacity:1" fill="#595957" d="M 88.5,352.5 C 98.5,352.5 108.5,352.5 118.5,352.5C 118.5,354.167 118.5,355.833 118.5,357.5C 108.5,357.5 98.5,357.5 88.5,357.5C 88.5,355.833 88.5,354.167 88.5,352.5 Z"/></g>
<g><path style="opacity:1" fill="#020201" d="M 89.5,353.5 C 98.8333,353.5 108.167,353.5 117.5,353.5C 117.5,354.5 117.5,355.5 117.5,356.5C 108.167,356.5 98.8333,356.5 89.5,356.5C 89.5,355.5 89.5,354.5 89.5,353.5 Z"/></g>
<g><path style="opacity:1" fill="#030202" d="M 88.5,342.5 C 98.1667,342.5 107.833,342.5 117.5,342.5C 117.5,343.833 117.5,345.167 117.5,346.5C 107.833,346.5 98.1667,346.5 88.5,346.5C 88.5,345.167 88.5,343.833 88.5,342.5 Z"/></g>
<g><path style="opacity:1" fill="#73746f" d="M 117.5,336.5 C 117.5,335.167 117.5,333.833 117.5,332.5C 108.167,332.5 98.8333,332.5 89.5,332.5C 89.5,333.833 89.5,335.167 89.5,336.5C 88.5489,335.081 88.2155,333.415 88.5,331.5C 98.5,331.5 108.5,331.5 118.5,331.5C 118.784,333.415 118.451,335.081 117.5,336.5 Z"/></g>
<g><path style="opacity:1" fill="#040501" d="M 117.5,336.5 C 108.167,336.5 98.8333,336.5 89.5,336.5C 89.5,335.167 89.5,333.833 89.5,332.5C 98.8333,332.5 108.167,332.5 117.5,332.5C 117.5,333.833 117.5,335.167 117.5,336.5 Z"/></g>
<g><path style="opacity:1" fill="#141513" d="M 117.5,322.5 C 117.5,323.833 117.5,325.167 117.5,326.5C 107.442,327.14 97.7755,326.473 88.5,324.5C 97.9053,322.567 107.572,321.9 117.5,322.5 Z"/></g>
<g><path style="opacity:1" fill="#5d5d59" d="M 117.5,322.5 C 107.572,321.9 97.9053,322.567 88.5,324.5C 88.5,323.5 88.5,322.5 88.5,321.5C 98.3478,321.173 108.014,321.506 117.5,322.5 Z"/></g>
<g><path style="opacity:1" fill="#070607" d="M 102.5,295.5 C 107.74,299.233 112.574,303.566 117,308.5C 117.497,310.81 117.663,313.143 117.5,315.5C 107.833,315.5 98.1667,315.5 88.5,315.5C 88.3379,313.473 88.5045,311.473 89,309.5C 93.7033,304.965 98.2033,300.298 102.5,295.5 Z"/></g>
<g><path style="opacity:1" fill="#060402" d="M 99.5,285.5 C 96.5,289.167 93.1667,292.5 89.5,295.5C 89.5,291.833 89.5,288.167 89.5,284.5C 93.0419,284.187 96.3752,284.521 99.5,285.5 Z"/></g>
<g><path style="opacity:1" fill="#969690" d="M 117.5,283.5 C 118.811,287.683 118.811,292.016 117.5,296.5C 116.893,296.376 116.56,296.043 116.5,295.5C 117.483,291.702 117.817,287.702 117.5,283.5 Z"/></g>
<g><path style="opacity:1" fill="#3e3d37" d="M 99.5,285.5 C 96.3752,284.521 93.0419,284.187 89.5,284.5C 89.5,288.167 89.5,291.833 89.5,295.5C 88.4982,292.278 88.1649,288.278 88.5,283.5C 92.8461,283.334 97.1794,283.501 101.5,284C 100.956,284.717 100.289,285.217 99.5,285.5 Z"/></g>
<g><path style="opacity:1" fill="#0b0b0b" d="M 117.5,283.5 C 117.817,287.702 117.483,291.702 116.5,295.5C 113.037,291.536 109.37,287.702 105.5,284C 109.486,283.501 113.486,283.334 117.5,283.5 Z"/></g>
<g><path style="opacity:1" fill="#4a4944" d="M 89.5,272.5 C 89.5,273.833 89.5,275.167 89.5,276.5C 98.8333,276.5 108.167,276.5 117.5,276.5C 108.014,277.494 98.3478,277.827 88.5,277.5C 88.2155,275.585 88.5489,273.919 89.5,272.5 Z"/></g>
<g><path style="opacity:1" fill="#0b0a09" d="M 89.5,272.5 C 98.8333,272.5 108.167,272.5 117.5,272.5C 117.5,273.833 117.5,275.167 117.5,276.5C 108.167,276.5 98.8333,276.5 89.5,276.5C 89.5,275.167 89.5,273.833 89.5,272.5 Z"/></g>
<g><path style="opacity:1" fill="#080705" d="M 117.5,262.5 C 117.5,263.833 117.5,265.167 117.5,266.5C 108.167,266.5 98.8333,266.5 89.5,266.5C 89.5,265.167 89.5,263.833 89.5,262.5C 98.8333,262.5 108.167,262.5 117.5,262.5 Z"/></g>
<g><path style="opacity:1" fill="#777773" d="M 117.5,262.5 C 108.167,262.5 98.8333,262.5 89.5,262.5C 89.5,263.833 89.5,265.167 89.5,266.5C 88.5489,265.081 88.2155,263.415 88.5,261.5C 98.3478,261.173 108.014,261.506 117.5,262.5 Z"/></g>
<g><path style="opacity:1" fill="#52524d" d="M 89.5,251.5 C 89.5,252.833 89.5,254.167 89.5,255.5C 98.8333,255.5 108.167,255.5 117.5,255.5C 108.014,256.494 98.3478,256.827 88.5,256.5C 88.2155,254.585 88.5489,252.919 89.5,251.5 Z"/></g>
<g><path style="opacity:1" fill="#070806" d="M 89.5,251.5 C 98.8333,251.5 108.167,251.5 117.5,251.5C 117.5,252.833 117.5,254.167 117.5,255.5C 108.167,255.5 98.8333,255.5 89.5,255.5C 89.5,254.167 89.5,252.833 89.5,251.5 Z"/></g>
<g><path style="opacity:1" fill="#0d0d0b" d="M 117.5,242.5 C 117.5,243.833 117.5,245.167 117.5,246.5C 108.167,246.5 98.8333,246.5 89.5,246.5C 89.5,245.167 89.5,243.833 89.5,242.5C 98.8333,242.5 108.167,242.5 117.5,242.5 Z"/></g>
<g><path style="opacity:1" fill="#7a7a77" d="M 117.5,242.5 C 108.167,242.5 98.8333,242.5 89.5,242.5C 89.5,243.833 89.5,245.167 89.5,246.5C 88.5489,245.081 88.2155,243.415 88.5,241.5C 98.3478,241.173 108.014,241.506 117.5,242.5 Z"/></g>
<g><path style="opacity:1" fill="#81807e" d="M 117.5,231.5 C 108.167,231.5 98.8333,231.5 89.5,231.5C 89.5,232.833 89.5,234.167 89.5,235.5C 98.8333,235.5 108.167,235.5 117.5,235.5C 108.014,236.494 98.3478,236.827 88.5,236.5C 88.5,234.5 88.5,232.5 88.5,230.5C 98.3478,230.173 108.014,230.506 117.5,231.5 Z"/></g>
<g><path style="opacity:1" fill="#020102" d="M 117.5,231.5 C 117.5,232.833 117.5,234.167 117.5,235.5C 108.167,235.5 98.8333,235.5 89.5,235.5C 89.5,234.167 89.5,232.833 89.5,231.5C 98.8333,231.5 108.167,231.5 117.5,231.5 Z"/></g>
<g><path style="opacity:1" fill="#9d9d98" d="M 89.5,217.5 C 89.5,218.833 89.5,220.167 89.5,221.5C 98.8333,221.5 108.167,221.5 117.5,221.5C 108.014,222.494 98.3478,222.827 88.5,222.5C 88.2155,220.585 88.5489,218.919 89.5,217.5 Z"/></g>
<g><path style="opacity:1" fill="#040502" d="M 89.5,217.5 C 98.8333,217.5 108.167,217.5 117.5,217.5C 117.5,218.833 117.5,220.167 117.5,221.5C 108.167,221.5 98.8333,221.5 89.5,221.5C 89.5,220.167 89.5,218.833 89.5,217.5 Z"/></g>
<g><path style="opacity:1" fill="#191917" d="M 117.5,208.5 C 117.5,209.833 117.5,211.167 117.5,212.5C 107.442,213.14 97.7755,212.473 88.5,210.5C 97.9053,208.567 107.572,207.9 117.5,208.5 Z"/></g>
<g><path style="opacity:1" fill="#575853" d="M 117.5,208.5 C 107.572,207.9 97.9053,208.567 88.5,210.5C 88.5,209.5 88.5,208.5 88.5,207.5C 98.3478,207.173 108.014,207.506 117.5,208.5 Z"/></g>
<g><path style="opacity:1" fill="#030201" d="M 117.5,198.5 C 117.5,199.5 117.5,200.5 117.5,201.5C 108.167,201.5 98.8333,201.5 89.5,201.5C 89.5,200.5 89.5,199.5 89.5,198.5C 98.8333,198.5 108.167,198.5 117.5,198.5 Z"/></g>
<g><path style="opacity:1" fill="#474544" d="M 117.5,198.5 C 108.167,198.5 98.8333,198.5 89.5,198.5C 89.5,199.5 89.5,200.5 89.5,201.5C 98.8333,201.5 108.167,201.5 117.5,201.5C 108.014,202.494 98.3478,202.827 88.5,202.5C 88.5,200.833 88.5,199.167 88.5,197.5C 98.3478,197.173 108.014,197.506 117.5,198.5 Z"/></g>
<g><path style="opacity:1" fill="#060506" d="M 88.5,187.5 C 98.1667,187.5 107.833,187.5 117.5,187.5C 117.5,188.833 117.5,190.167 117.5,191.5C 107.833,191.5 98.1667,191.5 88.5,191.5C 88.5,190.167 88.5,188.833 88.5,187.5 Z"/></g>
<g><path style="opacity:1" fill="#070807" d="M 101.5,157.5 C 112.528,158.243 116.694,163.91 114,174.5C 110.212,179.153 105.378,180.653 99.5,179C 93.8912,175.723 92.0578,170.89 94,164.5C 95.7424,161.254 98.2424,158.921 101.5,157.5 Z"/></g>
<g><path style="opacity:1" fill="#0a0908" d="M 433.5,150.5 C 440.911,152.86 446.244,157.527 449.5,164.5C 451.074,171.515 448.74,176.681 442.5,180C 435.84,181.732 430.174,180.232 425.5,175.5C 424.051,170.972 423.217,166.305 423,161.5C 421.819,157.637 419.986,154.137 417.5,151C 422.823,150.501 428.156,150.334 433.5,150.5 Z"/></g>
<g><path style="opacity:1" fill="#f0efe9" d="M 433.5,160.5 C 441.605,159.772 445.105,163.438 444,171.5C 438.919,176.986 434.252,176.653 430,170.5C 429.333,168.5 429.333,166.5 430,164.5C 431.376,163.295 432.542,161.962 433.5,160.5 Z"/></g>
<g><path style="opacity:1" fill="#060707" d="M 452.5,143.5 C 443.167,143.5 433.833,143.5 424.5,143.5C 417.09,144.68 410.423,143.18 404.5,139C 420.497,138.5 436.497,138.333 452.5,138.5C 452.5,140.167 452.5,141.833 452.5,143.5 Z"/></g>
<g><path style="opacity:1" fill="#090907" d="M 88.5,133.5 C 96.2816,147.056 107.948,152.556 123.5,150C 122.833,150.667 122.167,151.333 121.5,152C 110.505,152.5 99.505,152.667 88.5,152.5C 88.5,146.167 88.5,139.833 88.5,133.5 Z"/></g>
<g><path style="opacity:1" fill="#908f8b" d="M 181.5,130.5 C 181.5,131.833 181.5,133.167 181.5,134.5C 252.002,134.167 322.335,134.501 392.5,135.5C 321.833,135.5 251.167,135.5 180.5,135.5C 180.216,133.585 180.549,131.919 181.5,130.5 Z"/></g>
<g><path style="opacity:1" fill="#020100" d="M 181.5,130.5 C 253.5,130.5 325.5,130.5 397.5,130.5C 397.5,132.167 397.5,133.833 397.5,135.5C 395.833,135.5 394.167,135.5 392.5,135.5C 322.335,134.501 252.002,134.167 181.5,134.5C 181.5,133.167 181.5,131.833 181.5,130.5 Z"/></g>
<g><path style="opacity:1" fill="#969494" d="M 181.5,130.5 C 181.5,130.167 181.5,129.833 181.5,129.5C 181.833,129.5 182.167,129.5 182.5,129.5C 254.5,129.5 326.5,129.5 398.5,129.5C 398.795,131.735 398.461,133.735 397.5,135.5C 397.5,133.833 397.5,132.167 397.5,130.5C 325.5,130.5 253.5,130.5 181.5,130.5 Z"/></g>
<g><path style="opacity:1" fill="#757471" d="M 413.5,107.5 C 414.491,114.313 414.825,121.313 414.5,128.5C 412.833,128.5 411.167,128.5 409.5,128.5C 409.5,128.167 409.5,127.833 409.5,127.5C 410.833,127.5 412.167,127.5 413.5,127.5C 413.5,120.833 413.5,114.167 413.5,107.5 Z"/></g>
<g><path style="opacity:1" fill="#a19f9c" d="M 398.5,118.5 C 398.5,119.833 398.5,121.167 398.5,122.5C 333.331,122.832 268.331,122.499 203.5,121.5C 268.167,121.5 332.833,121.5 397.5,121.5C 397.263,120.209 397.596,119.209 398.5,118.5 Z"/></g>
<g><path style="opacity:1" fill="#31302e" d="M 173.5,98.5 C 173.5,98.8333 173.5,99.1667 173.5,99.5C 172.5,99.5 171.5,99.5 170.5,99.5C 170.5,111.167 170.5,122.833 170.5,134.5C 171.5,134.5 172.5,134.5 173.5,134.5C 172.432,135.434 171.099,135.768 169.5,135.5C 169.5,123.5 169.5,111.5 169.5,99.5C 170.568,98.5655 171.901,98.2322 173.5,98.5 Z"/></g>
<g><path style="opacity:1" fill="#a8a399" d="M 190.5,112.5 C 192.414,115.684 193.08,119.351 192.5,123.5C 188.774,123.823 185.107,123.489 181.5,122.5C 184.292,118.947 187.292,115.614 190.5,112.5 Z"/></g>
<g><path style="opacity:1" fill="#2d2b29" d="M 223.5,99.5 C 217.167,99.5 210.833,99.5 204.5,99.5C 204.825,106.687 204.491,113.687 203.5,120.5C 203.5,113.167 203.5,105.833 203.5,98.5C 210.354,98.176 217.021,98.5093 223.5,99.5 Z"/></g>
<g><path style="opacity:1" fill="#484846" d="M 161.5,98.5 C 161.5,110.5 161.5,122.5 161.5,134.5C 162.5,134.5 163.5,134.5 164.5,134.5C 164.083,135.124 163.416,135.457 162.5,135.5C 161.287,135.253 160.62,134.586 160.5,133.5C 160.172,121.655 160.505,109.988 161.5,98.5 Z"/></g>
<g><path style="opacity:1" fill="#eeeee8" d="M 348.5,99.5 C 343.352,107.036 345.352,110.536 354.5,110C 359.485,103.487 357.818,99.9869 349.5,99.5C 351.831,98.6827 354.331,98.0161 357,97.5C 360.441,98.3822 363.941,98.7155 367.5,98.5C 367.5,97.5 367.5,96.5 367.5,95.5C 372.768,95.4889 378.101,95.8222 383.5,96.5C 385.58,97.5282 385.914,98.8615 384.5,100.5C 385.817,100.179 387.151,99.8457 388.5,99.5C 389.713,99.7472 390.38,100.414 390.5,101.5C 389.929,104.477 388.929,107.31 387.5,110C 388.448,110.483 389.448,110.649 390.5,110.5C 389.737,111.268 388.737,111.768 387.5,112C 388.833,112.333 390.167,112.667 391.5,113C 386.177,113.17 380.844,113.003 375.5,112.5C 364.864,112.672 364.864,113.172 375.5,114C 363.969,113.735 352.469,113.902 341,114.5C 336.5,114.167 332,113.833 327.5,113.5C 325.668,112.943 324.335,111.943 323.5,110.5C 325.001,105.362 326.001,105.362 326.5,110.5C 327.5,110.5 328.5,110.5 329.5,110.5C 329.5,106.833 329.5,103.167 329.5,99.5C 328.448,99.3505 327.448,99.5172 326.5,100C 324.423,105.355 322.423,105.522 320.5,100.5C 319.042,99.218 317.708,99.218 316.5,100.5C 315.038,101.471 313.705,101.138 312.5,99.5C 311.448,99.3505 310.448,99.5172 309.5,100C 307.5,104.667 305.5,104.667 303.5,100C 302.552,99.5172 301.552,99.3505 300.5,99.5C 300.789,103.106 300.456,106.606 299.5,110C 300.793,110.49 302.127,110.657 303.5,110.5C 303.351,109.448 303.517,108.448 304,107.5C 304.759,109.063 305.926,110.063 307.5,110.5C 306.739,111.391 305.739,112.058 304.5,112.5C 300.405,112.227 296.738,111.227 293.5,109.5C 294.738,110.412 296.072,110.579 297.5,110C 296.036,106.235 294.202,102.735 292,99.5C 289.11,102.614 287.276,106.281 286.5,110.5C 287.959,110.567 289.292,110.234 290.5,109.5C 286.576,111.123 282.243,112.123 277.5,112.5C 278.025,113.192 278.692,113.692 279.5,114C 277.167,114.667 274.833,114.667 272.5,114C 273.252,113.329 273.586,112.496 273.5,111.5C 274.167,111.5 274.5,111.167 274.5,110.5C 274.5,109.5 274.5,108.5 274.5,107.5C 273.167,107.5 271.833,107.5 270.5,107.5C 270.5,104.833 270.5,102.167 270.5,99.5C 269.5,99.5 268.5,99.5 267.5,99.5C 266.698,100.952 266.198,102.618 266,104.5C 265.302,103.309 264.469,102.309 263.5,101.5C 261.721,99.6565 259.388,98.9898 256.5,99.5C 256.5,103.167 256.5,106.833 256.5,110.5C 258.833,110.5 261.167,110.5 263.5,110.5C 255.903,112.467 247.903,113.134 239.5,112.5C 239.351,111.448 239.517,110.448 240,109.5C 240.333,109.833 240.667,110.167 241,110.5C 242.662,106.554 242.996,102.554 242,98.5C 245.092,95.0561 248.425,94.7227 252,97.5C 252.333,96.8333 252.667,96.1667 253,95.5C 262.763,95.8643 272.596,95.8643 282.5,95.5C 285.833,95.8333 289.167,96.1667 292.5,96.5C 293.559,97.6964 294.893,98.363 296.5,98.5C 298.778,97.8154 300.112,96.8154 300.5,95.5C 304.113,95.9809 307.613,95.9809 311,95.5C 314.412,97.4398 318.079,98.7731 322,99.5C 324.122,98.7801 324.622,97.6134 323.5,96C 325.167,95.8333 326.833,95.6667 328.5,95.5C 331.011,95.288 333.178,95.9546 335,97.5C 337.064,96.4086 339.231,96.2419 341.5,97C 341.167,97.3333 340.833,97.6667 340.5,98C 343.207,98.3951 345.873,98.8951 348.5,99.5 Z"/></g>
<g><path style="opacity:1" fill="#b8b8b6" d="M 267.5,99.5 C 267.5,103.167 267.5,106.833 267.5,110.5C 269.833,110.5 272.167,110.5 274.5,110.5C 274.5,111.167 274.167,111.5 273.5,111.5C 271.167,111.5 268.833,111.5 266.5,111.5C 266.769,108.475 265.936,105.808 264,103.5C 263.768,104.737 263.268,105.737 262.5,106.5C 262.179,104.952 261.179,104.285 259.5,104.5C 259.5,103.5 259.5,102.5 259.5,101.5C 260.833,101.5 262.167,101.5 263.5,101.5C 264.469,102.309 265.302,103.309 266,104.5C 266.198,102.618 266.698,100.952 267.5,99.5 Z"/></g>
<g><path style="opacity:1" fill="#0d0c0b" d="M 440.5,107.5 C 442.411,107.574 443.578,108.574 444,110.5C 444.667,115.5 444.667,120.5 444,125.5C 443.292,126.381 442.458,127.047 441.5,127.5C 435.158,127.666 428.825,127.5 422.5,127C 421.359,121.25 421.193,115.416 422,109.5C 422.5,109 423,108.5 423.5,108C 429.157,107.501 434.824,107.334 440.5,107.5 Z"/></g>
<g><path style="opacity:1" fill="#fbfcf9" d="M 429.5,112.5 C 429.5,116.167 429.5,119.833 429.5,123.5C 428.5,123.5 427.5,123.5 426.5,123.5C 426.5,119.833 426.5,116.167 426.5,112.5C 427.5,112.5 428.5,112.5 429.5,112.5 Z"/></g>
<g><path style="opacity:1" fill="#acacac" d="M 429.5,112.5 C 428.5,112.5 427.5,112.5 426.5,112.5C 426.5,116.167 426.5,119.833 426.5,123.5C 425.517,119.702 425.183,115.702 425.5,111.5C 427.099,111.232 428.432,111.566 429.5,112.5 Z"/></g>
<g><path style="opacity:1" fill="#f3f3f3" d="M 435.5,111.5 C 436.833,111.5 438.167,111.5 439.5,111.5C 439.5,115.5 439.5,119.5 439.5,123.5C 438.167,123.5 436.833,123.5 435.5,123.5C 435.5,119.5 435.5,115.5 435.5,111.5 Z"/></g>
<g><path style="opacity:1" fill="#080705" d="M 413.5,107.5 C 413.5,114.167 413.5,120.833 413.5,127.5C 412.167,127.5 410.833,127.5 409.5,127.5C 409.5,124.833 409.5,122.167 409.5,119.5C 409.799,117.396 409.466,115.396 408.5,113.5C 407.914,113.709 407.414,114.043 407,114.5C 406.691,113.234 406.191,112.067 405.5,111C 407.116,110.385 408.449,109.385 409.5,108C 410.793,107.51 412.127,107.343 413.5,107.5 Z"/></g>
<g><path style="opacity:1" fill="#161515" d="M 360.5,99.5 C 363.614,100.091 366.114,101.758 368,104.5C 368.494,102.866 368.66,101.199 368.5,99.5C 369.5,99.5 370.5,99.5 371.5,99.5C 371.5,103.167 371.5,106.833 371.5,110.5C 368.386,109.909 365.886,108.242 364,105.5C 363.506,107.134 363.34,108.801 363.5,110.5C 362.5,110.5 361.5,110.5 360.5,110.5C 360.5,106.833 360.5,103.167 360.5,99.5 Z"/></g>
<g><path style="opacity:1" fill="#131312" d="M 348.5,99.5 C 348.833,99.5 349.167,99.5 349.5,99.5C 357.818,99.9869 359.485,103.487 354.5,110C 345.352,110.536 343.352,107.036 348.5,99.5 Z"/></g>
<g><path style="opacity:1" fill="#0f0e0f" d="M 312.5,99.5 C 312.5,103.167 312.5,106.833 312.5,110.5C 311.5,110.5 310.5,110.5 309.5,110.5C 309.395,105.34 308.728,105.34 307.5,110.5C 305.926,110.063 304.759,109.063 304,107.5C 303.517,108.448 303.351,109.448 303.5,110.5C 302.127,110.657 300.793,110.49 299.5,110C 300.456,106.606 300.789,103.106 300.5,99.5C 301.552,99.3505 302.552,99.5172 303.5,100C 305.5,104.667 307.5,104.667 309.5,100C 310.448,99.5172 311.448,99.3505 312.5,99.5 Z"/></g>
<g><path style="opacity:1" fill="#0b0a09" d="M 333.5,99.5 C 334.5,99.5 335.5,99.5 336.5,99.5C 336.351,100.552 336.517,101.552 337,102.5C 338.191,100.153 340.024,99.3198 342.5,100C 341.101,101.062 340.101,102.395 339.5,104C 340.62,105.737 341.62,107.571 342.5,109.5C 341.635,110.583 340.635,110.749 339.5,110C 337.332,105.301 336.332,105.468 336.5,110.5C 335.5,110.5 334.5,110.5 333.5,110.5C 333.5,106.833 333.5,103.167 333.5,99.5 Z"/></g>
<g><path style="opacity:1" fill="#dedddd" d="M 349.5,102.5 C 353.138,101.737 354.638,103.07 354,106.5C 349.415,108.413 347.915,107.079 349.5,102.5 Z"/></g>
<g><path style="opacity:1" fill="#101010" d="M 243.5,99.5 C 245.857,99.3367 248.19,99.5034 250.5,100C 252.032,103.29 252.365,106.624 251.5,110C 248.854,110.497 246.187,110.664 243.5,110.5C 243.5,106.833 243.5,103.167 243.5,99.5 Z"/></g>
<g><path style="opacity:1" fill="#e8e8e8" d="M 246.5,106.5 C 248.337,106.639 248.67,107.306 247.5,108.5C 246.702,108.043 246.369,107.376 246.5,106.5 Z"/></g>
<g><path style="opacity:1" fill="#dedcde" d="M 246.5,101.5 C 248.337,101.639 248.67,102.306 247.5,103.5C 246.702,103.043 246.369,102.376 246.5,101.5 Z"/></g>
<g><path style="opacity:1" fill="#151311" d="M 231.5,102.5 C 234.166,102.066 235.333,103.066 235,105.5C 231.403,107.066 230.237,106.066 231.5,102.5 Z"/></g>
<g><path style="opacity:1" fill="#0c0b0a" d="M 384.5,100.5 C 386.874,108.465 383.874,111.798 375.5,110.5C 375.5,106.833 375.5,103.167 375.5,99.5C 378.57,99.3677 381.57,99.701 384.5,100.5 Z"/></g>
<g><path style="opacity:1" fill="#faf9fa" d="M 380.5,102.5 C 383.167,104.167 383.167,105.833 380.5,107.5C 379.167,105.833 379.167,104.167 380.5,102.5 Z"/></g>
<g><path style="opacity:1" fill="#818180" d="M 380.5,102.5 C 379.167,104.167 379.167,105.833 380.5,107.5C 380.44,108.043 380.107,108.376 379.5,108.5C 378.167,106.167 378.167,103.833 379.5,101.5C 380.107,101.624 380.44,101.957 380.5,102.5 Z"/></g>
<g><path style="opacity:1" fill="#0e0f0c" d="M 193.5,99.5 C 196.119,101.703 197.119,104.369 196.5,107.5C 195.522,107.023 194.689,106.357 194,105.5C 193.035,107.26 191.868,107.594 190.5,106.5C 191.312,104.055 192.312,101.722 193.5,99.5 Z"/></g>
<g><path style="opacity:1" fill="#141111" d="M 181.5,99.5 C 183.288,99.2148 184.955,99.5481 186.5,100.5C 185.624,101.251 184.624,101.751 183.5,102C 186.346,102.879 187.013,104.546 185.5,107C 183.597,107.774 181.93,107.44 180.5,106C 181.5,105.667 182.5,105.333 183.5,105C 181.845,103.556 181.178,101.722 181.5,99.5 Z"/></g>
<g><path style="opacity:1" fill="#181817" d="M 293.5,109.5 C 292.5,109.5 291.5,109.5 290.5,109.5C 289.292,110.234 287.959,110.567 286.5,110.5C 287.276,106.281 289.11,102.614 292,99.5C 294.202,102.735 296.036,106.235 297.5,110C 296.072,110.579 294.738,110.412 293.5,109.5 Z"/></g>
<g><path style="opacity:1" fill="#161615" d="M 267.5,99.5 C 268.5,99.5 269.5,99.5 270.5,99.5C 270.5,102.167 270.5,104.833 270.5,107.5C 271.833,107.5 273.167,107.5 274.5,107.5C 274.5,108.5 274.5,109.5 274.5,110.5C 272.167,110.5 269.833,110.5 267.5,110.5C 267.5,106.833 267.5,103.167 267.5,99.5 Z"/></g>
<g><path style="opacity:1" fill="#181817" d="M 395.5,101.5 C 396.787,104.406 397.787,107.406 398.5,110.5C 395.771,109.47 393.104,109.47 390.5,110.5C 389.448,110.649 388.448,110.483 387.5,110C 388.929,107.31 389.929,104.477 390.5,101.5C 392.199,98.849 393.866,98.849 395.5,101.5 Z"/></g>
<g><path style="opacity:1" fill="#161515" d="M 323.5,110.5 C 322.21,109.942 321.377,108.942 321,107.5C 320.517,108.448 320.351,109.448 320.5,110.5C 319.167,110.5 317.833,110.5 316.5,110.5C 316.5,107.167 316.5,103.833 316.5,100.5C 317.708,99.218 319.042,99.218 320.5,100.5C 322.423,105.522 324.423,105.355 326.5,100C 327.448,99.5172 328.448,99.3505 329.5,99.5C 329.5,103.167 329.5,106.833 329.5,110.5C 328.5,110.5 327.5,110.5 326.5,110.5C 326.001,105.362 325.001,105.362 323.5,110.5 Z"/></g>
<g><path style="opacity:1" fill="#0e0d0b" d="M 277.5,99.5 C 278.5,99.5 279.5,99.5 280.5,99.5C 280.5,102.167 280.5,104.833 280.5,107.5C 281.833,107.5 283.167,107.5 284.5,107.5C 284.5,108.5 284.5,109.5 284.5,110.5C 282.167,110.5 279.833,110.5 277.5,110.5C 277.5,106.833 277.5,103.167 277.5,99.5 Z"/></g>
<g><path style="opacity:1" fill="#10100f" d="M 263.5,101.5 C 262.167,101.5 260.833,101.5 259.5,101.5C 259.5,102.5 259.5,103.5 259.5,104.5C 261.179,104.285 262.179,104.952 262.5,106.5C 258.828,107.045 259.162,107.378 263.5,107.5C 263.5,108.5 263.5,109.5 263.5,110.5C 261.167,110.5 258.833,110.5 256.5,110.5C 256.5,106.833 256.5,103.167 256.5,99.5C 259.388,98.9898 261.721,99.6565 263.5,101.5 Z"/></g>
<g><path style="opacity:1" fill="#010101" d="M 223.5,99.5 C 223.5,104.5 223.5,109.5 223.5,114.5C 281.833,115.833 340.167,117.167 398.5,118.5C 397.596,119.209 397.263,120.209 397.5,121.5C 332.833,121.5 268.167,121.5 203.5,121.5C 203.5,121.167 203.5,120.833 203.5,120.5C 204.491,113.687 204.825,106.687 204.5,99.5C 210.833,99.5 217.167,99.5 223.5,99.5 Z"/></g>
<g><path style="opacity:1" fill="#010000" d="M 173.5,99.5 C 173.5,111.167 173.5,122.833 173.5,134.5C 172.5,134.5 171.5,134.5 170.5,134.5C 170.5,122.833 170.5,111.167 170.5,99.5C 171.5,99.5 172.5,99.5 173.5,99.5 Z"/></g>
<g><path style="opacity:1" fill="#030201" d="M 161.5,98.5 C 162.5,98.5 163.5,98.5 164.5,98.5C 164.5,110.5 164.5,122.5 164.5,134.5C 163.5,134.5 162.5,134.5 161.5,134.5C 161.5,122.5 161.5,110.5 161.5,98.5 Z"/></g>
<g><path style="opacity:1" fill="#0a0a0a" d="M 153.5,98.5 C 155.48,110.455 156.146,122.788 155.5,135.5C 150.319,135.631 145.319,135.631 140.5,135.5C 143.983,127.267 144.316,118.933 141.5,110.5C 145.827,106.839 149.827,102.839 153.5,98.5 Z"/></g>
<g><path style="opacity:1" fill="#0f0e0c" d="M 131.5,99.5 C 136.316,98.3503 141.316,98.1837 146.5,99C 143.688,100.977 141.022,103.144 138.5,105.5C 136.761,102.757 134.427,100.757 131.5,99.5 Z"/></g>
<g><path style="opacity:1" fill="#060503" d="M 409.5,98.5 C 411.5,98.5 413.5,98.5 415.5,98.5C 415.5,99.8333 415.5,101.167 415.5,102.5C 413.265,102.795 411.265,102.461 409.5,101.5C 409.5,100.5 409.5,99.5 409.5,98.5 Z"/></g>
<g><path style="opacity:1" fill="#060505" d="M 107.5,98.5 C 117.27,96.6947 125.77,99.028 133,105.5C 133.982,106.759 134.315,108.092 134,109.5C 131.521,112.069 128.854,114.402 126,116.5C 125.186,118.902 125.353,121.235 126.5,123.5C 130.141,120.195 133.808,116.862 137.5,113.5C 141.336,128.002 136.336,138.502 122.5,145C 108.153,147.91 97.9861,142.743 92,129.5C 89.096,114.957 94.2627,104.624 107.5,98.5 Z"/></g>
<g><path style="opacity:1" fill="#a0988d" d="M 111.5,112.5 C 123.287,112.448 126.787,117.782 122,128.5C 114.991,133.448 109.658,132.115 106,124.5C 104.873,119.089 106.707,115.089 111.5,112.5 Z"/></g>
<g><path style="opacity:1" fill="#070301" d="M 392.5,456.5 C 394.167,456.5 395.833,456.5 397.5,456.5C 397.5,458.5 397.5,460.5 397.5,462.5C 395.833,462.5 394.167,462.5 392.5,462.5C 392.5,460.5 392.5,458.5 392.5,456.5 Z"/></g>
<g><path style="opacity:1" fill="#807f7c" d="M 213.5,461.5 C 214.043,461.56 214.376,461.893 214.5,462.5C 209.682,463.812 205.015,463.812 200.5,462.5C 205.032,462.818 209.366,462.485 213.5,461.5 Z"/></g>
<g><path style="opacity:1" fill="#787776" d="M 229.5,461.5 C 233.97,462.486 238.637,462.819 243.5,462.5C 238.652,463.814 233.652,463.814 228.5,462.5C 228.624,461.893 228.957,461.56 229.5,461.5 Z"/></g>
</svg>
